<?xml version="1.0" encoding="utf-8"?>
<!-- Generator: Adobe Illustrator 23.0.2, SVG Export Plug-In . SVG Version: 6.00 Build 0)  -->
<svg version="1.1" id="Layer_1" xmlns="http://www.w3.org/2000/svg" xmlns:xlink="http://www.w3.org/1999/xlink" x="0px" y="0px"
	 viewBox="0 0 32 32" style="enable-background:new 0 0 32 32;" xml:space="preserve">
<style type="text/css">
	.st0{fill:#FFFFFF;}
	.st1{fill:none;}
	.st2{fill:none;stroke:#000000;stroke-width:4;stroke-miterlimit:10;}
</style>
<rect x="0" y="0" class="st0" width="32" height="32"/>
<g>
	<path class="st1" d="M6.9,16"/>
</g>
<g>
	<path class="st1" d="M0,16"/>
</g>
<g>
	<g>
		<line class="st2" x1="16" y1="5.8" x2="16" y2="8.5"/>
		<g>
			<polygon points="12.1,7 16,0.1 20,7 			"/>
		</g>
	</g>
</g>
<g>
	<g>
		<line class="st2" x1="16" y1="26.2" x2="16" y2="23.5"/>
		<g>
			<polygon points="20,25 16,31.9 12.1,25 			"/>
		</g>
	</g>
</g>
<g>
	<g>
		<line class="st2" x1="26.3" y1="16" x2="23.6" y2="16"/>
		<g>
			<polygon points="25.1,12 32,16 25.1,20 			"/>
		</g>
	</g>
</g>
<g>
	<g>
		<line class="st2" x1="5.8" y1="16" x2="8.5" y2="16"/>
		<g>
			<polygon points="7,20 0,16 7,12 			"/>
		</g>
	</g>
</g>
<g>
	<path class="st1" d="M25.1,16"/>
</g>
<g>
	<path class="st1" d="M32,16"/>
</g>
<g>
	<path d="M10.6,10h10.7l0,3.6h-0.5c-0.2-1.3-0.6-2.1-1.4-2.6c-0.4-0.2-1.1-0.4-2-0.4v9.3c0,0.7,0.1,1.1,0.3,1.3
		c0.2,0.2,0.7,0.3,1.4,0.3V22h-6.3v-0.4c0.7,0,1.2-0.1,1.4-0.3c0.2-0.2,0.3-0.6,0.3-1.3v-9.3c-0.9,0-1.5,0.2-2,0.4
		c-0.8,0.5-1.3,1.3-1.4,2.6h-0.5L10.6,10z"/>
</g>
</svg>
